# xmcd
#
# Track frame offsets:
#	150
#	11862
#	24474
#	35110
#	50801
#	62029
#	74257
#	89829
#	101194
#	114227
#	126124
#	135517
#	146937
#	157054
#	168835
#	183184
#	195259
#	210302
#	224043
#	241633
#	255021
#	268003
#	280964
#
# Disc length: 4089 seconds
#
# Revision: 0
# Processed by: cddbd v1.5.2PL0 Copyright (c) Steve Scherf et al.
# Submitted via: audiograbber 1.83.01
#
DISCID=570ff717
DTITLE=Henri Salvador - Le petit indien 51-56
DYEAR=2009
DGENRE=Chanson
TTITLE0=Doucement...doucement
TTITLE1=Dors mon petit ange
TTITLE2=Le telephone
TTITLE3=Tout est tranquille
TTITLE4=Ma petite folie
TTITLE5=Je vous aime
TTITLE6=Gade boug'la
TTITLE7=L'abeille et le papillon
TTITLE8=Haiti
TTITLE9=Ma petite Jacqueline
TTITLE10=En trainant la savate (la parigote)
TTITLE11=Quand on s'aime a Paris
TTITLE12=La mort passe
TTITLE13=Les oiseaux et les reves
TTITLE14=Le petit indien
TTITLE15=Elle me donne (ah ¡ ah ¡)
TTITLE16=Papa loves mambo
TTITLE17=Le roi du fox-trot
TTITLE18=Le roi des caves
TTITLE19=Margaret
TTITLE20=As-tu vu Adele Â¿
TTITLE21=Qu'ech que ch'est que cha Â¿ (cha-cha-cha auvergnat)
TTITLE22=Recital express 11 titres
EXTD=Integrale Fremaux Vol3 CD1
EXTT0=
EXTT1=
EXTT2=
EXTT3=
EXTT4=
EXTT5=
EXTT6=
EXTT7=
EXTT8=
EXTT9=
EXTT10=
EXTT11=
EXTT12=
EXTT13=
EXTT14=
EXTT15=
EXTT16=
EXTT17=
EXTT18=
EXTT19=
EXTT20=
EXTT21=
EXTT22=
PLAYORDER=
